<svg width="833" height="317" viewBox="0 0 833 317" fill="none" xmlns="http://www.w3.org/2000/svg">
<path d="M368.159 118.272L328.895 153.275H328.807L248.329 55.2392H316.414L368.159 118.272Z" fill="#81818C"/>
<path d="M479.386 250.757H411.324L363.614 192.684L344.703 169.592L363.414 152.832H399.019L479.386 250.757Z" fill="#FFC000"/>
<path d="M534.612 0L399.019 152.832H398.931L363.614 192.684L292.603 272.654L179.557 317L344.703 169.592L363.414 152.832L534.612 0Z" fill="#C55A11"/>
<path d="M399.042 152.788L363.614 192.684L369.711 200.101L399.042 152.788Z" fill="#CC9900"/>
<path d="M467.015 192.338C463.69 191.121 460.675 189.349 458.036 187.003C455.398 184.656 453.292 181.667 451.784 178.08C450.255 174.471 449.501 170.464 449.501 165.97C449.501 161.475 450.321 157.136 451.895 153.151C453.491 149.143 455.797 145.689 458.746 142.723C461.717 139.756 465.219 137.476 469.299 135.837C473.356 134.199 477.701 133.38 482.379 133.38C484.951 133.38 488.077 133.623 491.779 134.088C495.46 134.553 498.674 135.173 501.423 135.881L501.534 154.922L499.96 155.276C500.027 153.438 494.085 135.505 480.317 135.505C478.322 135.505 476.438 136.457 474.73 138.317C473.001 140.199 471.582 142.966 470.518 146.575C469.432 150.206 468.9 154.346 468.9 158.973C468.9 162.339 469.232 165.615 469.92 168.804C470.607 171.992 471.737 174.826 473.289 177.261C474.863 179.696 476.814 181.645 479.187 183.062C481.537 184.501 484.308 185.209 487.456 185.209C489.85 185.209 492.267 184.811 494.617 183.992C496.967 183.172 498.985 181.999 500.559 180.383L501.512 181.711C498.231 185.785 494.528 188.862 490.449 190.944C486.348 193.025 481.98 194.043 477.324 194.043C473.799 194.043 470.341 193.445 467.015 192.25H466.993L467.015 192.338Z" fill="#3C3C4C"/>
<path d="M794.978 159.571C794.801 163.468 795.244 167.055 796.242 170.309C797.24 173.564 798.725 176.287 800.654 178.523C802.583 180.759 804.866 182.464 807.504 183.615C810.143 184.766 813.003 185.342 816.062 185.342C818.811 185.342 821.582 184.899 824.442 183.969C827.302 183.04 829.519 181.8 831.138 180.206L832.224 181.423C825.484 189.969 816.794 194.242 806.196 194.242C802.028 194.242 798.082 193.6 794.38 192.316C790.699 191.032 787.485 189.172 784.736 186.671C782.009 184.191 779.88 181.158 778.351 177.571C776.821 173.962 776.067 170.021 776.067 165.704C776.067 161.387 776.887 157.136 778.461 153.173C780.058 149.21 782.341 145.756 785.268 142.789C788.194 139.822 791.719 137.542 795.821 135.904C799.922 134.265 804.312 133.446 809.056 133.446C817.082 133.446 823.29 135.749 827.679 140.332C832.069 144.937 833.732 151.335 832.69 159.571H794.978ZM798.282 141.66C796.397 145.689 795.289 150.981 794.978 157.534C798.37 157.601 813.446 157.822 815.685 157.534C815.863 155.055 815.685 150.206 815.131 147.106C814.599 143.985 813.535 141.306 811.872 139.025C810.231 136.745 808.236 135.616 805.93 135.616C802.716 135.616 800.166 137.63 798.282 141.682V141.66Z" fill="#3C3C4C"/>
<path d="M748.443 134.686C749.152 129.395 757.245 118.502 772.586 119.83V132.295C770.502 131.719 754.407 128.952 750.372 135.151C755.183 136.435 759.085 138.583 762.056 141.616C765.026 144.649 766.512 148.324 766.512 152.619C766.512 154.856 766.046 157.224 765.049 159.682C764.095 162.162 762.255 164.597 759.573 167.055C756.89 169.49 753.52 171.328 749.529 172.567C745.517 173.807 741.459 174.405 737.358 174.405L732.17 174.162C730.951 174.737 729.975 175.49 729.222 176.442C728.468 177.394 728.069 178.324 728.069 179.187C728.069 181.756 730.352 183.305 734.919 183.859L750.35 185.896C752.744 186.206 755.515 186.848 758.619 187.822C761.723 188.774 764.339 190.302 766.49 192.449C768.662 194.552 769.749 197.143 769.749 200.176C769.749 202.567 769.017 205.069 767.509 207.659C766.024 210.272 763.74 212.685 760.703 214.966C757.666 217.246 753.808 219.084 749.13 220.478C744.475 221.873 739.176 222.582 733.234 222.582C725.697 222.582 719.511 221.541 714.744 219.46C709.956 217.379 707.583 214.744 707.583 211.556C707.583 211.379 707.583 211.113 707.65 210.737C707.694 210.338 707.938 209.674 708.359 208.7C708.803 207.748 709.845 206.663 711.441 205.445C713.037 204.228 714.767 203.187 716.629 202.279C718.491 201.349 720.464 200.442 722.571 199.534C724.699 198.604 726.096 197.984 726.739 197.696C723.856 197.298 721.196 196.523 718.779 195.35C716.385 194.198 714.678 192.87 713.725 191.342C712.771 189.837 712.284 188.42 712.284 187.158C712.284 185.077 713.37 183.062 715.543 181.114C717.715 179.143 722.327 176.73 729.399 173.874C724.721 173.077 720.93 171.571 717.937 169.379C714.966 167.187 712.993 164.774 711.995 162.184C710.998 159.571 710.488 157.335 710.488 155.409C710.488 152.376 711.219 149.542 712.727 146.907C714.212 144.273 716.296 141.992 718.979 140.022C721.662 138.051 724.854 136.546 728.556 135.483C732.237 134.42 736.161 133.867 740.24 133.867C742.635 133.867 745.384 134.155 748.421 134.686H748.399H748.443ZM751.214 202.434C749.219 200.862 746.403 199.955 742.79 199.623L729.177 198.051C727.581 199.003 726.339 200.353 725.519 202.058C724.677 203.763 724.255 205.578 724.255 207.504C724.255 210.87 725.541 213.814 728.113 216.36C730.685 218.929 734.254 220.191 738.821 220.191C740.905 220.191 743.144 219.77 745.561 218.929C747.955 218.109 750.017 216.67 751.702 214.656C753.387 212.663 754.229 210.538 754.229 208.301C754.229 205.91 753.232 203.918 751.237 202.39L751.214 202.434ZM730.374 162.25C731.261 165.438 732.414 167.94 733.877 169.734C735.318 171.527 737.025 172.435 738.932 172.435C740.218 172.435 741.57 171.903 743.034 170.863C744.475 169.822 745.694 167.94 746.692 165.217C747.689 162.494 748.199 159.394 748.199 155.852C748.199 152.309 747.689 149.077 746.692 145.601C745.694 142.125 744.408 139.667 742.834 138.162C741.26 136.701 739.708 135.926 738.2 135.926C735.562 135.926 733.367 137.498 731.638 140.597C729.931 143.697 729.044 147.66 729.044 152.464C729.044 155.741 729.488 158.974 730.374 162.184V162.228V162.25Z" fill="#3C3C4C"/>
<path d="M530.488 146.066C534.656 141.749 538.447 138.782 541.817 137.143C545.187 135.505 548.402 134.686 551.461 134.686C553.213 134.686 555.097 134.996 557.048 135.594C559.021 136.191 560.884 137.232 562.635 138.715C564.387 140.177 565.916 142.236 567.202 144.892C568.488 147.527 569.131 150.804 569.131 154.723V194.132H551.306V154.833C551.306 152.044 550.73 149.697 549.621 147.815C548.513 145.933 547.182 144.693 545.719 144.095C544.234 143.498 542.881 143.188 541.706 143.188C538.026 143.188 534.279 144.892 530.511 148.346V194.11H512.686V133.955C512.686 129.394 512.619 124.9 512.464 120.472C512.242 114.339 516.455 108.937 522.463 107.542L530.511 105.66V146.044H530.488V146.066Z" fill="#3C3C4C"/>
<path d="M663.155 148.368V194.132H645.33V159.748C645.33 156.272 645.285 152.951 645.152 149.808C644.909 143.298 649.298 137.52 655.661 135.992L663.155 134.442V146.066C667.323 141.682 671.136 138.671 674.572 137.099C678.031 135.505 681.245 134.708 684.216 134.708C687.187 134.708 690.202 135.483 692.996 137.055C695.811 138.627 697.962 140.996 699.491 144.184C701.021 147.372 701.775 150.892 701.775 154.723V194.132H683.95V154.833C683.95 151.158 683.019 148.302 681.179 146.265C679.317 144.228 677.033 143.21 674.328 143.21C670.715 143.21 666.968 144.915 663.132 148.368H663.155Z" fill="#3C3C4C"/>
<path d="M635.686 185.01C635.375 185.165 634.932 185.342 634.355 185.564C633.779 185.763 633.313 185.874 632.892 185.874C630.387 185.874 629.145 183.903 629.145 180.006V151.38C629.145 147.306 628.192 143.852 626.308 140.996C624.423 138.162 621.741 136.191 618.238 135.084C614.735 133.977 610.944 133.402 606.865 133.402C602.541 133.402 597.952 133.955 593.119 135.018C588.308 136.103 583.874 137.608 579.883 139.512L579.839 155.785H581.701C582.899 151.977 590.592 135.572 603.739 135.572C605.911 135.572 607.751 136.701 609.281 138.981C610.811 141.262 611.565 144.184 611.565 147.793V159.416C602.497 160.922 595.536 162.759 590.725 164.863C585.914 166.966 582.544 169.269 580.615 171.748C578.686 174.228 577.733 176.973 577.733 180.006C577.733 183.04 578.575 185.586 580.26 187.91C581.945 190.235 583.918 191.851 586.202 192.759C588.485 193.689 590.614 194.132 592.543 194.132C595.425 194.132 598.418 193.335 601.521 191.741C604.625 190.147 607.973 187.423 611.565 183.593C611.964 186.87 613.094 189.438 614.957 191.32C616.819 193.202 619.28 194.132 622.428 194.132C625.31 194.132 627.993 193.379 630.498 191.851C633.003 190.346 634.998 188.486 636.528 186.339L635.686 185.01ZM611.587 181.18C610.367 182.53 608.971 183.637 607.308 184.479C605.667 185.298 604.182 185.741 602.896 185.741C600.79 185.741 599.038 184.789 597.575 182.929C596.134 181.047 595.403 178.479 595.403 175.202C595.403 171.128 596.733 168.007 599.415 165.837C602.098 163.689 606.133 162.206 611.52 161.409V181.18H611.565H611.587Z" fill="#3C3C4C"/>
<path d="M103.623 104H81.9408C74.9794 115.668 61.8769 146.221 55.1593 167.121L29.1316 104H0C0.598594 116.044 0.908976 131.077 0.908976 149.055C0.908976 167.032 0.598594 182.066 0 194.11H21.3277C20.7291 182.154 20.4187 167.21 20.4187 149.321C20.4187 139.114 20.5074 129.992 20.7069 121.845L47.0894 194.11H57.5093C59.2164 185.652 74.4473 134.664 82.9163 121.535C83.1159 129.771 83.2045 138.937 83.2045 149.055C83.2045 167.055 82.8942 182.066 82.2956 194.11H103.623C103.025 182.154 102.714 167.21 102.714 149.321C102.714 131.431 103.025 115.712 103.623 104Z" fill="#3C3C4C"/>
<path d="M118.233 110.73C120.273 108.893 122.667 107.963 125.394 107.963C128.121 107.963 130.471 108.893 132.422 110.73C134.395 112.568 135.371 114.693 135.371 117.107C135.371 119.52 134.329 121.623 132.245 123.483C130.161 125.321 127.744 126.251 125.017 126.251C122.291 126.251 120.074 125.321 118.1 123.483C116.127 121.645 115.152 119.52 115.152 117.107C115.152 114.693 116.172 112.59 118.211 110.73H118.233ZM116.238 159.859C116.238 156.472 116.172 153.084 116.039 149.652C115.795 143.121 120.295 137.365 126.68 135.904L133.908 134.265V194.087H116.216V159.859H116.238Z" fill="#3C3C4C"/>
<path d="M162.596 148.213V194.11H144.793V159.638C144.793 156.162 144.749 152.819 144.638 149.652C144.416 143.121 148.762 137.343 155.124 135.815L162.618 134.287V145.933C166.764 141.527 170.577 138.516 174.036 136.922C177.472 135.328 180.687 134.509 183.657 134.509C186.628 134.509 189.643 135.284 192.437 136.856C195.252 138.428 197.403 140.797 198.933 144.007C200.462 147.217 201.216 150.737 201.216 154.568V194.087H183.414V154.678C183.414 151.003 182.482 148.125 180.642 146.088C178.802 144.051 176.519 143.033 173.792 143.033C170.178 143.033 166.453 144.76 162.596 148.191V148.213Z" fill="#3C3C4C"/>
<path d="M268.964 172.705C268.178 174.565 266.219 176.846 263.09 179.567C259.508 182.66 255.458 185.297 250.939 187.444C246.42 189.59 242.503 190.976 239.172 191.568H239.072C234.871 192.345 230.971 189.185 230.821 184.875C230.419 173.703 230.218 161.905 230.218 149.482C231.155 149.482 249.717 149.736 259.91 157.882L260.177 138.766C246.202 144.53 237.281 147.37 230.201 147.285C230.201 135.2 230.419 123.775 230.854 112.991C230.988 109.831 233.633 107.363 236.762 107.583C264.981 109.493 266.906 125.617 266.822 127.155L268.479 126.766L269.065 104.304C262.069 104.997 252.194 105.335 239.407 105.335C227.39 105.335 217.582 104.997 210 104.304C210.603 117.47 210.887 132.53 210.887 149.499C210.887 165.336 210.586 180.362 210 194.559H267.157L270.922 172.722H268.931L268.964 172.705Z" fill="#3C3C4C"/>
</svg>
